<?xml version="1.0" encoding="UTF-8"?><svg version="1.1" viewBox="0 0 23.083 6.8019" xmlns="http://www.w3.org/2000/svg"><g fill="white" transform="translate(-398.49 -3.1548)"><path d="m403.93 3.1548c-0.12058 0-0.23405 0.01943-0.34044 0.05844-0.10285 0.03901-0.19325 0.09417-0.27127 0.1651-0.0745 0.07092-0.13506 0.15771-0.18118 0.26056-0.0425 0.10285-0.0638 0.21993-0.0638 0.35115v2.6436c0 0.13122 0.0213 0.2483 0.0638 0.35115 0.0461 0.10285 0.1067 0.19145 0.18118 0.26592 0.078 0.07095 0.16842 0.12431 0.27127 0.15975 0.10639 0.03902 0.21986 0.05844 0.34044 0.05844 0.11703 0 0.22687-0.01943 0.32972-0.05844 0.10639-0.03546 0.19861-0.08882 0.27663-0.15975 0.0781-0.07447 0.13815-0.16307 0.18069-0.26592 0.0461-0.10285 0.0692-0.21993 0.0692-0.35115v-2.6436c0-0.13122-0.023-0.2483-0.0692-0.35115-0.0426-0.10285-0.10267-0.18964-0.18069-0.26056-0.078-0.07092-0.17024-0.12608-0.27663-0.1651-0.10285-0.03902-0.21269-0.05844-0.32972-0.05844zm16.826 0c-0.12411 0-0.23758 0.01943-0.34044 0.05844-0.10284 0.03546-0.19143 0.09062-0.2659 0.1651-0.0745 0.07092-0.1328 0.15771-0.17534 0.26056-0.039 0.0993-0.0584 0.21276-0.0584 0.34044v2.665c0 0.25534 0.0692 0.4574 0.20747 0.60635 0.14186 0.1454 0.31906 0.21819 0.53183 0.21819 0.12414 0 0.23397-0.02488 0.32973-0.07452 0.0958-0.0461 0.1771-0.10622 0.24449-0.18069l0.0214 0.18069h0.30342v-2.3085h-0.84061v0.44125h0.41495v1.1065c0 0.12055-0.037 0.21096-0.11154 0.27128-0.0744 0.06032-0.16488 0.09059-0.27127 0.09059-0.1064 0-0.19366-0.03027-0.26105-0.09059-0.0638-0.06029-0.0955-0.1507-0.0955-0.27128v-2.6436c0-0.12055 0.0335-0.21096 0.10082-0.27128 0.0674-0.06032 0.15779-0.09059 0.27127-0.09059 0.1064 0 0.19186 0.03027 0.25569 0.09059 0.0674 0.06029 0.10082 0.1507 0.10082 0.27128v0.1276h0.45245v-0.13832c0-0.25534-0.0746-0.45559-0.22354-0.601-0.14896-0.14895-0.34608-0.22355-0.59078-0.22355zm-22.269 0.07452v4.1651h0.48946v-1.6437h0.3721c0.25534 0 0.45788-0.07822 0.60684-0.23426 0.14895-0.15604 0.22306-0.39697 0.22306-0.72324v-0.60635c0-0.32627-0.0741-0.56769-0.22306-0.72373-0.14896-0.15605-0.3515-0.23377-0.60684-0.23377zm2.0986 0v4.1651h0.48946v-4.1651zm0.97698 0v4.1651h1.2712v-0.47339h-0.78217v-3.6917zm3.4667 0v0.47339h0.46801v3.6917h0.48948v-3.6917h0.46804v-0.47339zm2.629 0v0.47339h0.46804v3.6917h0.48947v-3.6917h0.46804v-0.47339zm1.7796 0v4.1651h0.47875v-1.9418h0.36186c0.14896 0 0.24843 0.02849 0.29807 0.08523 0.0533 0.0532 0.0798 0.14542 0.0798 0.27663v1.5799h0.48362v-1.5639c0-0.17023-0.028-0.30312-0.0847-0.39888-0.0567-0.09577-0.13677-0.16494-0.23961-0.20748 0.0958-0.04256 0.16855-0.10991 0.21819-0.20212 0.0497-0.09221 0.0746-0.22197 0.0746-0.38865v-0.57957c0-0.25889-0.0746-0.46094-0.22356-0.60635-0.1454-0.1454-0.34565-0.21819-0.60099-0.21819zm2.704 0-0.70231 4.1651h0.4734l0.0906-0.601h0.77682l0.0955 0.601h0.47389l-0.72373-4.1651zm1.5458 0v4.1651h0.48898v-4.1651zm0.9765 0v4.1651h0.42566v-3.0639l0.80311 3.0639h0.43638v-4.1651h-0.42567v2.8725l-0.70764-2.8725zm2.1507 0v4.1651h0.48947v-4.1651zm0.9765 0v4.1651h0.42566v-3.0639l0.80312 3.0639h0.43638v-4.1651h-0.42566v2.8725l-0.70766-2.8725zm-13.861 0.39839c0.10994 0 0.19853 0.03211 0.26591 0.09595 0.0709 0.06029 0.10618 0.1507 0.10618 0.27128v2.6334c0 0.12058-0.0352 0.2128-0.10618 0.27663-0.0674 0.06032-0.15597 0.0901-0.26591 0.0901-0.10994-1e-6 -0.20035-0.02978-0.27128-0.0901-0.0674-0.06384-0.1013-0.15606-0.1013-0.27663v-2.6334c0-0.12055 0.0339-0.21096 0.1013-0.27128 0.0709-0.06384 0.16134-0.09595 0.27128-0.09595zm5.9866 0.06429h0.32973c0.25533 0 0.38328 0.14014 0.38328 0.42031v0.54255c0 0.13474-0.0285 0.23239-0.0852 0.29271-0.0532 0.05674-0.15266 0.08523-0.29805 0.08523h-0.32973zm-10.94 0.01072h0.33508c0.25535 0 0.38281 0.15052 0.38281 0.45196v0.67064c0 0.30145-0.12746 0.45196-0.38281 0.45196h-0.33508zm13.41 0.59564 0.32971 2.0855h-0.6492zm-7.4876 3.1779c-0.0714 0-0.13665 0.01117-0.19579 0.03361-0.0591 0.02039-0.1101 0.05166-0.15293 0.09448-0.0428 0.04078-0.0763 0.09087-0.10081 0.15001-0.0224 0.0571-0.0336 0.12238-0.0336 0.19579v1.5327c0 0.14682 0.0398 0.26307 0.11932 0.34872 0.0816 0.08361 0.18351 0.12516 0.30586 0.12516 0.0714 0 0.1344-0.01431 0.18946-0.04285 0.0551-0.02651 0.10199-0.06091 0.14074-0.10374l0.0122 0.10374h0.17436v-1.3277h-0.48313v0.25423h0.23864v0.63606c0 0.06933-0.0215 0.12118-0.0643 0.15585-0.0428 0.03466-0.0947 0.05211-0.15585 0.05211-0.0612 0-0.11126-0.01744-0.15-0.05211-0.0367-0.03466-0.055-0.08652-0.055-0.15585v-1.52c0-0.06933 0.0192-0.12167 0.058-0.15634 0.0387-0.03467 0.0911-0.05163 0.15633-0.05163 0.0612 0 0.1099 0.01696 0.14659 0.05163 0.0387 0.03467 0.058 0.087 0.058 0.15634v0.07305h0.26008v-0.07939c0-0.14682-0.0429-0.26218-0.12858-0.34579-0.0857-0.08565-0.1988-0.12809-0.3395-0.12809zm3.9547 0c-0.14684 0-0.26534 0.04695-0.35506 0.14075-0.0876 0.09177-0.13149 0.21693-0.13149 0.37599 0 0.07749 0.0121 0.15884 0.0366 0.24449 0.0265 0.08361 0.0744 0.18064 0.14366 0.29076 0.0285 0.04486 0.0603 0.09181 0.095 0.14075 0.0367 0.0469 0.0734 0.09385 0.11007 0.14075 0.0367 0.0469 0.0716 0.0916 0.10423 0.13442 0.0347 0.04282 0.0632 0.08173 0.0857 0.1164 0.0449 0.06933 0.0752 0.13236 0.0915 0.18946 0.0184 0.0571 0.0278 0.11345 0.0278 0.16851 0 0.08972-0.0197 0.15902-0.0584 0.20796-0.0367 0.04894-0.0935 0.07354-0.17095 0.07354-0.0713 0-0.12773-0.02146-0.16851-0.06429-0.0387-0.04283-0.058-0.09291-0.058-0.15v-0.05796l-0.26008-0.0677v0.12858c0 0.06525 0.0112 0.12651 0.0336 0.18361 0.0244 0.0571 0.058 0.10718 0.10082 0.15001 0.0428 0.04078 0.0951 0.07342 0.15634 0.09789 0.0632 0.02447 0.13428 0.03653 0.21381 0.03653 0.16517 0 0.2868-0.05097 0.36429-0.15293 0.0775-0.104 0.11592-0.24484 0.11592-0.42226 0-0.08769-0.0112-0.16502-0.0336-0.23231-0.0204-0.06729-0.0539-0.13884-0.10082-0.21429-0.0285-0.04486-0.062-0.09358-0.10081-0.1466-0.0387-0.05506-0.0799-0.11004-0.12273-0.1651-0.0408-0.0571-0.0814-0.1112-0.12225-0.16218-0.0387-0.05098-0.0713-0.09567-0.0979-0.13442-0.0408-0.0571-0.0721-0.1112-0.0945-0.16218-0.0204-0.05302-0.0307-0.10938-0.0307-0.16851 0-0.07137 0.0174-0.13126 0.0521-0.1802 0.0367-0.05098 0.0926-0.07646 0.16803-0.07646 0.0652 0 0.11623 0.02009 0.15292 0.06088 0.0367 0.04078 0.055 0.09577 0.055 0.1651v0.06429h0.26007v-0.08523c0-0.14071-0.0407-0.2543-0.12225-0.33995-0.0816-0.08565-0.19467-0.12809-0.33945-0.12809zm7.5548 0c-0.0693 0-0.13409 0.01117-0.19529 0.03361-0.0591 0.02243-0.11148 0.0537-0.15634 0.09448-0.0428 0.04078-0.0772 0.09087-0.10373 0.15001-0.0244 0.05914-0.037 0.12667-0.037 0.20212v1.52c0 0.07545 0.0125 0.14298 0.037 0.20212 0.0265 0.05914 0.0609 0.1101 0.10373 0.15293 0.0449 0.04078 0.0972 0.07117 0.15634 0.09156 0.0612 0.02243 0.12596 0.03361 0.19529 0.03361 0.0673 0 0.13083-0.01118 0.18995-0.03361 0.0612-0.0204 0.11392-0.05078 0.15878-0.09156 0.0449-0.04283 0.0797-0.09379 0.10423-0.15293 0.0265-0.05914 0.04-0.12667 0.04-0.20212v-1.52c0-0.07545-0.0134-0.14298-0.04-0.20212-0.0245-0.05914-0.0594-0.10922-0.10423-0.15-0.0449-0.04078-0.0976-0.07205-0.15878-0.09448-0.0592-0.02243-0.12265-0.03361-0.18995-0.03361zm-14.498 0.04286v2.3947h0.2815v-1.0184h0.40034v-0.27225h-0.40034v-0.83234h0.5445v-0.27176zm1.0276 0v2.3947h0.73103v-0.27225h-0.45002v-2.1225zm0.93169 0v2.3947h0.2815v-2.3947zm1.7626 0v2.3947h0.2815v-1.0827h0.42518v1.0827h0.2815v-2.3947h-0.2815v1.0427h-0.42518v-1.0427zm1.1869 0v0.27176h0.26933v2.123h0.2815v-2.123h0.26884v-0.27176zm2.7439 0v2.3947h0.2815v-2.3947zm0.56154 0v2.3947h0.25082v-1.5658l0.30001 1.5658h0.26008l0.29368-1.5444v1.5444h0.25081v-2.3947h-0.2815l-0.3945 1.8994-0.37306-1.8994zm1.6311 0v1.9574c0 0.07545 0.0121 0.14298 0.0366 0.20212 0.0265 0.05914 0.0614 0.1101 0.10422 0.15293 0.0449 0.04078 0.0967 0.07117 0.15585 0.09156 0.0591 0.02243 0.12352 0.03361 0.19287 0.03361 0.0694 0 0.13374-0.01118 0.19286-0.03361 0.0612-0.02039 0.1139-0.05078 0.15876-0.09156 0.0449-0.04283 0.0798-0.09379 0.10423-0.15293 0.0265-0.05914 0.0395-0.12667 0.0395-0.20212v-1.9574h-0.27518v1.9545c0 0.06933-0.0201 0.12207-0.0609 0.15877-0.0387 0.03466-0.091 0.05211-0.15634 0.05211-0.0612 0-0.11215-0.01744-0.15292-0.05211-0.0387-0.03671-0.058-0.08944-0.058-0.15877v-1.9545zm1.2609 0v2.3947h0.73104v-0.27225h-0.45002v-2.1225zm1.2497 0-0.40375 2.3947h0.27225l0.0521-0.34579h0.44662l0.055 0.34579h0.27224l-0.41592-2.3947zm0.68964 0v0.27176h0.26932v2.123h0.28151v-2.123h0.26932v-0.27176zm2.2126 0v2.3947h0.27517v-1.1163h0.20796c0.0857 0 0.14291 0.01608 0.17144 0.0487 0.0306 0.03059 0.0458 0.08381 0.0458 0.15926v0.90831h0.27858v-0.89906c0-0.09788-0.0166-0.17433-0.0492-0.22939-0.0326-0.05506-0.0782-0.09485-0.13734-0.11932 0.055-0.02447 0.0966-0.06338 0.12518-0.1164 0.0285-0.05302 0.0429-0.12722 0.0429-0.22306v-0.33362c0-0.14886-0.0429-0.26511-0.12858-0.34871-0.0836-0.08361-0.19848-0.12517-0.3453-0.12517zm-0.75929 0.22939c0.0632 0 0.11416 0.01833 0.15293 0.05503 0.0408 0.03467 0.0609 0.08652 0.0609 0.15585v1.5142c0 0.06933-0.0201 0.12207-0.0609 0.15877-0.0387 0.03466-0.0897 0.05211-0.15293 0.05211-0.0632 0-0.11554-0.01744-0.15632-0.05211-0.0387-0.03671-0.058-0.08944-0.058-0.15877v-1.5142c0-0.06933 0.0192-0.12118 0.058-0.15585 0.0408-0.03671 0.0931-0.05503 0.15632-0.05503zm1.0345 0.03653h0.18945c0.14683 0 0.22063 0.08047 0.22063 0.24157v0.31219c0 0.07749-0.0166 0.13336-0.0492 0.16803-0.0305 0.03263-0.0874 0.04919-0.17095 0.04919h-0.18994zm-3.0366 0.34871 0.18993 1.1991h-0.37354z"/></g></svg>
